<svg xmlns="http://www.w3.org/2000/svg" viewBox="0 0 64 64" width="1024" height="1024">
    <defs>
        <linearGradient id="caseBase" x1="0%" y1="0%" x2="100%" y2="100%">
            <stop offset="0%" stop-color="#546E7A"/>
            <stop offset="100%" stop-color="#212121"/>
        </linearGradient>
        
        <linearGradient id="caseRim" x1="0%" y1="0%" x2="100%" y2="100%">
            <stop offset="0%" stop-color="#CFD8DC"/>
            <stop offset="100%" stop-color="#455A64"/>
        </linearGradient>

        <linearGradient id="faceGrad" x1="0%" y1="0%" x2="0%" y2="100%">
            <stop offset="0%" stop-color="#FFFFFF"/>
            <stop offset="100%" stop-color="#ECEFF1"/>
        </linearGradient>

        <linearGradient id="timerGrad" x1="0%" y1="0%" x2="100%" y2="100%">
            <stop offset="0%" stop-color="#8bc7ff"/>
            <stop offset="100%" stop-color="#4da6ff"/>
        </linearGradient>
    </defs>

    <circle cx="32" cy="40" r="23" fill="#000000" opacity="0.15" />

    <circle cx="32" cy="11" r="7" fill="none" stroke="url(#caseBase)" stroke-width="4" />
    <rect x="25" y="10" width="14" height="6" rx="2" fill="url(#caseBase)" />
    <rect x="28" y="15" width="8" height="5" fill="url(#caseRim)" />

    <circle cx="32" cy="38" r="23" fill="url(#caseBase)" />
    
    <circle cx="32" cy="38" r="20" fill="url(#caseRim)" />
    
    <circle cx="32" cy="38" r="17" fill="url(#faceGrad)" />

    <path d="M 32 38 L 32 21 A 17 17 0 0 1 46.72 46.5 Z" fill="url(#timerGrad)" />

    <rect x="30.5" y="23" width="3" height="4" rx="1" fill="#90A4AE" />
    <rect x="30.5" y="49" width="3" height="4" rx="1" fill="#90A4AE" />
    <rect x="18" y="36.5" width="4" height="3" rx="1" fill="#90A4AE" />
    <rect x="42" y="36.5" width="4" height="3" rx="1" fill="#90A4AE" />

    <g transform="rotate(120 32 38)">
        <path d="M 30 38 L 30 22 L 32 19 L 34 22 L 34 38 Z" fill="#263238" />
    </g>
    
    <g transform="rotate(-60 32 38)">
        <rect x="30" y="26" width="4" height="14" rx="1.5" fill="#263238" />
    </g>

    <circle cx="32" cy="38" r="4.5" fill="#263238" />
    <circle cx="31" cy="37" r="1.5" fill="#FFFFFF" opacity="0.6" />
</svg>
